<?xml version="1.0" encoding="UTF-8" standalone="no"?>
<!DOCTYPE svg PUBLIC "-//W3C//DTD SVG 1.1//EN"
 "http://www.w3.org/Graphics/SVG/1.1/DTD/svg11.dtd">
<!-- Generated by graphviz version 13.1.2 (20250808.2320)
 -->
<!-- Title: ERDiagram Pages: 1 -->
<svg width="859pt" height="1146pt"
 viewBox="0.00 0.00 859.00 1146.00" xmlns="http://www.w3.org/2000/svg" xmlns:xlink="http://www.w3.org/1999/xlink">
<g id="graph0" class="graph" transform="scale(1 1) rotate(0) translate(4 1141.62)">
<title>ERDiagram</title>
<polygon fill="white" stroke="none" points="-4,4 -4,-1141.62 854.75,-1141.62 854.75,4 -4,4"/>
<!-- Patient -->
<g id="node1" class="node">
<title>Patient</title>
<polygon fill="#ffe6e6" stroke="black" points="363.88,-628.38 261.62,-628.38 261.62,-494.12 363.88,-494.12 363.88,-628.38"/>
<text xml:space="preserve" text-anchor="middle" x="312.75" y="-611.08" font-family="Arial" font-size="14.00">Patient</text>
<text xml:space="preserve" text-anchor="middle" x="312.75" y="-579.33" font-family="Arial" font-size="14.00">PatientID (PK)</text>
<text xml:space="preserve" text-anchor="middle" x="312.75" y="-563.58" font-family="Arial" font-size="14.00">Name</text>
<text xml:space="preserve" text-anchor="middle" x="312.75" y="-547.83" font-family="Arial" font-size="14.00">Age</text>
<text xml:space="preserve" text-anchor="middle" x="312.75" y="-532.08" font-family="Arial" font-size="14.00">Gender</text>
<text xml:space="preserve" text-anchor="middle" x="312.75" y="-516.33" font-family="Arial" font-size="14.00">Address</text>
<text xml:space="preserve" text-anchor="middle" x="312.75" y="-500.57" font-family="Arial" font-size="14.00">Phone</text>
</g>
<!-- Appointment -->
<g id="node3" class="node">
<title>Appointment</title>
<polygon fill="#e6f3ff" stroke="black" points="646.12,-1137.62 509.38,-1137.62 509.38,-1034.88 646.12,-1034.88 646.12,-1137.62"/>
<text xml:space="preserve" text-anchor="middle" x="577.75" y="-1120.33" font-family="Arial" font-size="14.00">Appointment</text>
<text xml:space="preserve" text-anchor="middle" x="577.75" y="-1088.58" font-family="Arial" font-size="14.00">AppointmentID (PK)</text>
<text xml:space="preserve" text-anchor="middle" x="577.75" y="-1072.83" font-family="Arial" font-size="14.00">PatientID (FK)</text>
<text xml:space="preserve" text-anchor="middle" x="577.75" y="-1057.08" font-family="Arial" font-size="14.00">DoctorID (FK)</text>
<text xml:space="preserve" text-anchor="middle" x="577.75" y="-1041.33" font-family="Arial" font-size="14.00">AppointmentDate</text>
</g>
<!-- Patient&#45;&gt;Appointment -->
<g id="edge1" class="edge">
<title>Patient&#45;&gt;Appointment</title>
<path fill="none" stroke="black" d="M327.18,-628.83C348.96,-725.06 399.39,-903.49 494,-1026.25 496.22,-1029.13 498.62,-1031.94 501.14,-1034.66"/>
<polygon fill="black" stroke="black" points="498.46,-1036.92 508.01,-1041.5 503.4,-1031.96 498.46,-1036.92"/>
<text xml:space="preserve" text-anchor="middle" x="450.88" y="-1008.01" font-family="Arial" font-size="10.00">1:M</text>
<text xml:space="preserve" text-anchor="middle" x="450.88" y="-996.01" font-family="Arial" font-size="10.00">Schedules</text>
</g>
<!-- MedicalRecord -->
<g id="node4" class="node">
<title>MedicalRecord</title>
<polygon fill="#e6f3ff" stroke="black" points="631.12,-118.5 524.38,-118.5 524.38,0 631.12,0 631.12,-118.5"/>
<text xml:space="preserve" text-anchor="middle" x="577.75" y="-101.2" font-family="Arial" font-size="14.00">MedicalRecord</text>
<text xml:space="preserve" text-anchor="middle" x="577.75" y="-69.45" font-family="Arial" font-size="14.00">RecordID (PK)</text>
<text xml:space="preserve" text-anchor="middle" x="577.75" y="-53.7" font-family="Arial" font-size="14.00">PatientID (FK)</text>
<text xml:space="preserve" text-anchor="middle" x="577.75" y="-37.95" font-family="Arial" font-size="14.00">DoctorID (FK)</text>
<text xml:space="preserve" text-anchor="middle" x="577.75" y="-22.2" font-family="Arial" font-size="14.00">Diagnosis</text>
<text xml:space="preserve" text-anchor="middle" x="577.75" y="-6.45" font-family="Arial" font-size="14.00">Treatment</text>
</g>
<!-- Patient&#45;&gt;MedicalRecord -->
<g id="edge2" class="edge">
<title>Patient&#45;&gt;MedicalRecord</title>
<path fill="none" stroke="black" d="M364.36,-513.82C380.46,-496.23 396.88,-475.19 407.75,-453.25 425.28,-417.87 416.32,-404.59 425.75,-366.25 452.13,-258.98 433.41,-219.62 494,-127.25 499.9,-118.25 507.37,-109.84 515.39,-102.22"/>
<polygon fill="black" stroke="black" points="517.68,-104.87 522.78,-95.58 513,-99.66 517.68,-104.87"/>
<text xml:space="preserve" text-anchor="middle" x="450.88" y="-380.75" font-family="Arial" font-size="10.00">1:M</text>
<text xml:space="preserve" text-anchor="middle" x="450.88" y="-368.75" font-family="Arial" font-size="10.00">Has</text>
</g>
<!-- Billing -->
<g id="node5" class="node">
<title>Billing</title>
<polygon fill="#e6f3ff" stroke="black" points="628.5,-817.62 527,-817.62 527,-714.88 628.5,-714.88 628.5,-817.62"/>
<text xml:space="preserve" text-anchor="middle" x="577.75" y="-800.33" font-family="Arial" font-size="14.00">Billing</text>
<text xml:space="preserve" text-anchor="middle" x="577.75" y="-768.58" font-family="Arial" font-size="14.00">BillID (PK)</text>
<text xml:space="preserve" text-anchor="middle" x="577.75" y="-752.83" font-family="Arial" font-size="14.00">PatientID (FK)</text>
<text xml:space="preserve" text-anchor="middle" x="577.75" y="-737.08" font-family="Arial" font-size="14.00">Amount</text>
<text xml:space="preserve" text-anchor="middle" x="577.75" y="-721.33" font-family="Arial" font-size="14.00">BillingDate</text>
</g>
<!-- Patient&#45;&gt;Billing -->
<g id="edge3" class="edge">
<title>Patient&#45;&gt;Billing</title>
<path fill="none" stroke="black" d="M364.22,-602.44C400.14,-631.53 449.68,-671.23 494,-705.25 501.53,-711.03 509.5,-717.04 517.41,-722.94"/>
<polygon fill="black" stroke="black" points="515.3,-725.73 525.42,-728.89 519.48,-720.11 515.3,-725.73"/>
<text xml:space="preserve" text-anchor="middle" x="450.88" y="-704.45" font-family="Arial" font-size="10.00">1:M</text>
<text xml:space="preserve" text-anchor="middle" x="450.88" y="-692.45" font-family="Arial" font-size="10.00">Receives</text>
</g>
<!-- Payment -->
<g id="node6" class="node">
<title>Payment</title>
<polygon fill="#e6f3ff" stroke="black" points="634.88,-696.62 520.62,-696.62 520.62,-593.88 634.88,-593.88 634.88,-696.62"/>
<text xml:space="preserve" text-anchor="middle" x="577.75" y="-679.33" font-family="Arial" font-size="14.00">Payment</text>
<text xml:space="preserve" text-anchor="middle" x="577.75" y="-647.58" font-family="Arial" font-size="14.00">PaymentID (PK)</text>
<text xml:space="preserve" text-anchor="middle" x="577.75" y="-631.83" font-family="Arial" font-size="14.00">PatientID (FK)</text>
<text xml:space="preserve" text-anchor="middle" x="577.75" y="-616.08" font-family="Arial" font-size="14.00">AmountPaid</text>
<text xml:space="preserve" text-anchor="middle" x="577.75" y="-600.33" font-family="Arial" font-size="14.00">PaymentDate</text>
</g>
<!-- Patient&#45;&gt;Payment -->
<g id="edge4" class="edge">
<title>Patient&#45;&gt;Payment</title>
<path fill="none" stroke="black" d="M364.15,-577.35C405.35,-590.51 463.97,-609.23 509.23,-623.68"/>
<polygon fill="black" stroke="black" points="508.1,-627 518.69,-626.71 510.23,-620.33 508.1,-627"/>
<text xml:space="preserve" text-anchor="middle" x="450.88" y="-625.27" font-family="Arial" font-size="10.00">1:M</text>
<text xml:space="preserve" text-anchor="middle" x="450.88" y="-613.27" font-family="Arial" font-size="10.00">Makes</text>
</g>
<!-- PaymentStatus -->
<g id="node7" class="node">
<title>PaymentStatus</title>
<polygon fill="#e6f3ff" stroke="black" points="642,-575.75 513.5,-575.75 513.5,-488.75 642,-488.75 642,-575.75"/>
<text xml:space="preserve" text-anchor="middle" x="577.75" y="-558.45" font-family="Arial" font-size="14.00">PaymentStatus</text>
<text xml:space="preserve" text-anchor="middle" x="577.75" y="-526.7" font-family="Arial" font-size="14.00">PatientID (PK)</text>
<text xml:space="preserve" text-anchor="middle" x="577.75" y="-510.95" font-family="Arial" font-size="14.00">LatestBillAmount</text>
<text xml:space="preserve" text-anchor="middle" x="577.75" y="-495.2" font-family="Arial" font-size="14.00">PaymentComplete</text>
</g>
<!-- Patient&#45;&gt;PaymentStatus -->
<g id="edge5" class="edge">
<title>Patient&#45;&gt;PaymentStatus</title>
<path fill="none" stroke="black" d="M364.15,-555.69C403.12,-551.4 457.67,-545.38 501.76,-540.52"/>
<polygon fill="black" stroke="black" points="501.96,-544.02 511.52,-539.44 501.19,-537.06 501.96,-544.02"/>
<text xml:space="preserve" text-anchor="middle" x="450.88" y="-562.99" font-family="Arial" font-size="10.00">1:1</text>
<text xml:space="preserve" text-anchor="middle" x="450.88" y="-550.99" font-family="Arial" font-size="10.00">Tracked By</text>
</g>
<!-- Prescription -->
<g id="node9" class="node">
<title>Prescription</title>
<polygon fill="#e6f3ff" stroke="black" points="643.5,-1017 512,-1017 512,-835.5 643.5,-835.5 643.5,-1017"/>
<text xml:space="preserve" text-anchor="middle" x="577.75" y="-999.7" font-family="Arial" font-size="14.00">Prescription</text>
<text xml:space="preserve" text-anchor="middle" x="577.75" y="-967.95" font-family="Arial" font-size="14.00">PrescriptionID (PK)</text>
<text xml:space="preserve" text-anchor="middle" x="577.75" y="-952.2" font-family="Arial" font-size="14.00">PatientID (FK)</text>
<text xml:space="preserve" text-anchor="middle" x="577.75" y="-936.45" font-family="Arial" font-size="14.00">DoctorID (FK)</text>
<text xml:space="preserve" text-anchor="middle" x="577.75" y="-920.7" font-family="Arial" font-size="14.00">MedicineName</text>
<text xml:space="preserve" text-anchor="middle" x="577.75" y="-904.95" font-family="Arial" font-size="14.00">Dosage</text>
<text xml:space="preserve" text-anchor="middle" x="577.75" y="-889.2" font-family="Arial" font-size="14.00">Frequency</text>
<text xml:space="preserve" text-anchor="middle" x="577.75" y="-873.45" font-family="Arial" font-size="14.00">StartDate</text>
<text xml:space="preserve" text-anchor="middle" x="577.75" y="-857.7" font-family="Arial" font-size="14.00">EndDate</text>
<text xml:space="preserve" text-anchor="middle" x="577.75" y="-841.95" font-family="Arial" font-size="14.00">Notes</text>
</g>
<!-- Patient&#45;&gt;Prescription -->
<g id="edge6" class="edge">
<title>Patient&#45;&gt;Prescription</title>
<path fill="none" stroke="black" d="M357.06,-628.62C392.55,-682.92 444.79,-760.74 494,-826.25 497.42,-830.81 500.98,-835.44 504.6,-840.09"/>
<polygon fill="black" stroke="black" points="501.77,-842.15 510.71,-847.84 507.27,-837.82 501.77,-842.15"/>
<text xml:space="preserve" text-anchor="middle" x="450.88" y="-812.8" font-family="Arial" font-size="10.00">1:M</text>
<text xml:space="preserve" text-anchor="middle" x="450.88" y="-800.8" font-family="Arial" font-size="10.00">Receives</text>
</g>
<!-- Room -->
<g id="node11" class="node">
<title>Room</title>
<polygon fill="#e6f3ff" stroke="black" points="661.5,-470.25 494,-470.25 494,-320.25 661.5,-320.25 661.5,-470.25"/>
<text xml:space="preserve" text-anchor="middle" x="577.75" y="-452.95" font-family="Arial" font-size="14.00">Room</text>
<text xml:space="preserve" text-anchor="middle" x="577.75" y="-421.2" font-family="Arial" font-size="14.00">RoomID (PK)</text>
<text xml:space="preserve" text-anchor="middle" x="577.75" y="-405.45" font-family="Arial" font-size="14.00">RoomNumber (UNIQUE)</text>
<text xml:space="preserve" text-anchor="middle" x="577.75" y="-389.7" font-family="Arial" font-size="14.00">RoomType (ENUM)</text>
<text xml:space="preserve" text-anchor="middle" x="577.75" y="-373.95" font-family="Arial" font-size="14.00">Capacity</text>
<text xml:space="preserve" text-anchor="middle" x="577.75" y="-358.2" font-family="Arial" font-size="14.00">IsOccupied</text>
<text xml:space="preserve" text-anchor="middle" x="577.75" y="-342.45" font-family="Arial" font-size="14.00">CurrentPatientID (FK)</text>
<text xml:space="preserve" text-anchor="middle" x="577.75" y="-326.7" font-family="Arial" font-size="14.00">DepartmentID (FK)</text>
</g>
<!-- Patient&#45;&gt;Room -->
<g id="edge8" class="edge">
<title>Patient&#45;&gt;Room</title>
<path fill="none" stroke="black" d="M364.03,-532.77C396.37,-514.14 439.09,-488.94 476,-465.25 478.69,-463.52 481.41,-461.76 484.14,-459.97"/>
<polygon fill="black" stroke="black" points="485.83,-463.05 492.24,-454.62 481.97,-457.21 485.83,-463.05"/>
<text xml:space="preserve" text-anchor="middle" x="450.88" y="-509.82" font-family="Arial" font-size="10.00">1:0..1</text>
<text xml:space="preserve" text-anchor="middle" x="450.88" y="-497.82" font-family="Arial" font-size="10.00">Occupies</text>
</g>
<!-- LabTest -->
<g id="node12" class="node">
<title>LabTest</title>
<polygon fill="#e6f3ff" stroke="black" points="631.5,-302.12 524,-302.12 524,-136.38 631.5,-136.38 631.5,-302.12"/>
<text xml:space="preserve" text-anchor="middle" x="577.75" y="-284.82" font-family="Arial" font-size="14.00">LabTest</text>
<text xml:space="preserve" text-anchor="middle" x="577.75" y="-253.07" font-family="Arial" font-size="14.00">TestID (PK)</text>
<text xml:space="preserve" text-anchor="middle" x="577.75" y="-237.32" font-family="Arial" font-size="14.00">PatientID (FK)</text>
<text xml:space="preserve" text-anchor="middle" x="577.75" y="-221.57" font-family="Arial" font-size="14.00">DoctorID (FK)</text>
<text xml:space="preserve" text-anchor="middle" x="577.75" y="-205.82" font-family="Arial" font-size="14.00">TestName</text>
<text xml:space="preserve" text-anchor="middle" x="577.75" y="-190.07" font-family="Arial" font-size="14.00">TestDate</text>
<text xml:space="preserve" text-anchor="middle" x="577.75" y="-174.32" font-family="Arial" font-size="14.00">Result</text>
<text xml:space="preserve" text-anchor="middle" x="577.75" y="-158.57" font-family="Arial" font-size="14.00">Status (ENUM)</text>
<text xml:space="preserve" text-anchor="middle" x="577.75" y="-142.82" font-family="Arial" font-size="14.00">Notes</text>
</g>
<!-- Patient&#45;&gt;LabTest -->
<g id="edge7" class="edge">
<title>Patient&#45;&gt;LabTest</title>
<path fill="none" stroke="black" d="M364.31,-502.83C390.3,-473.24 418.11,-442.46 425.75,-437.25 445.47,-423.79 460.84,-436.7 476,-418.25 506.62,-381 473.04,-354.68 494,-311.25 499.84,-299.16 507.75,-287.49 516.39,-276.75"/>
<polygon fill="black" stroke="black" points="519.05,-279.03 522.81,-269.12 513.69,-274.52 519.05,-279.03"/>
<text xml:space="preserve" text-anchor="middle" x="450.88" y="-451.75" font-family="Arial" font-size="10.00">1:M</text>
<text xml:space="preserve" text-anchor="middle" x="450.88" y="-439.75" font-family="Arial" font-size="10.00">Undergoes</text>
</g>
<!-- Doctor -->
<g id="node2" class="node">
<title>Doctor</title>
<polygon fill="#ffe6e6" stroke="black" points="126.62,-444.62 26.62,-444.62 26.62,-341.88 126.62,-341.88 126.62,-444.62"/>
<text xml:space="preserve" text-anchor="middle" x="76.62" y="-427.32" font-family="Arial" font-size="14.00">Doctor</text>
<text xml:space="preserve" text-anchor="middle" x="76.62" y="-395.57" font-family="Arial" font-size="14.00">DoctorID (PK)</text>
<text xml:space="preserve" text-anchor="middle" x="76.62" y="-379.82" font-family="Arial" font-size="14.00">Name</text>
<text xml:space="preserve" text-anchor="middle" x="76.62" y="-364.07" font-family="Arial" font-size="14.00">Specialization</text>
<text xml:space="preserve" text-anchor="middle" x="76.62" y="-348.32" font-family="Arial" font-size="14.00">Phone</text>
</g>
<!-- Doctor&#45;&gt;Appointment -->
<g id="edge9" class="edge">
<title>Doctor&#45;&gt;Appointment</title>
<path fill="none" stroke="black" d="M127.08,-424.1C137.23,-432.66 146.78,-442.79 153.25,-454.25 179.18,-500.15 186.2,-882.02 217.75,-924.25 285.05,-1014.33 414.02,-1055.53 497.66,-1073.47"/>
<polygon fill="black" stroke="black" points="496.91,-1076.89 507.41,-1075.5 498.33,-1070.04 496.91,-1076.89"/>
<text xml:space="preserve" text-anchor="middle" x="312.75" y="-1062.19" font-family="Arial" font-size="10.00">1:M</text>
<text xml:space="preserve" text-anchor="middle" x="312.75" y="-1050.19" font-family="Arial" font-size="10.00">Has</text>
</g>
<!-- Doctor&#45;&gt;MedicalRecord -->
<g id="edge10" class="edge">
<title>Doctor&#45;&gt;MedicalRecord</title>
<path fill="none" stroke="black" d="M110.89,-341.43C136.55,-304.68 174.83,-256.22 217.75,-223.25 309.94,-152.44 437.61,-103.45 513.24,-78.47"/>
<polygon fill="black" stroke="black" points="514.15,-81.85 522.58,-75.42 511.98,-75.2 514.15,-81.85"/>
<text xml:space="preserve" text-anchor="middle" x="312.75" y="-237.75" font-family="Arial" font-size="10.00">1:M</text>
<text xml:space="preserve" text-anchor="middle" x="312.75" y="-225.75" font-family="Arial" font-size="10.00">Treats</text>
</g>
<!-- Doctor&#45;&gt;Prescription -->
<g id="edge11" class="edge">
<title>Doctor&#45;&gt;Prescription</title>
<path fill="none" stroke="black" d="M127.02,-426.45C136.68,-434.66 146.04,-444.06 153.25,-454.25 203.04,-524.66 176.65,-561.44 217.75,-637.25 290.11,-770.73 293.79,-833.15 425.75,-908.25 448.04,-920.93 475.15,-926.58 500.21,-928.71"/>
<polygon fill="black" stroke="black" points="499.84,-932.19 510.05,-929.36 500.3,-925.21 499.84,-932.19"/>
<text xml:space="preserve" text-anchor="middle" x="312.75" y="-910.34" font-family="Arial" font-size="10.00">1:M</text>
<text xml:space="preserve" text-anchor="middle" x="312.75" y="-898.34" font-family="Arial" font-size="10.00">Prescribes</text>
</g>
<!-- Department -->
<g id="node10" class="node">
<title>Department</title>
<polygon fill="#ffe6e6" stroke="black" points="407.75,-444.62 217.75,-444.62 217.75,-341.88 407.75,-341.88 407.75,-444.62"/>
<text xml:space="preserve" text-anchor="middle" x="312.75" y="-427.32" font-family="Arial" font-size="14.00">Department</text>
<text xml:space="preserve" text-anchor="middle" x="312.75" y="-395.57" font-family="Arial" font-size="14.00">DepartmentID (PK)</text>
<text xml:space="preserve" text-anchor="middle" x="312.75" y="-379.82" font-family="Arial" font-size="14.00">DepartmentName (UNIQUE)</text>
<text xml:space="preserve" text-anchor="middle" x="312.75" y="-364.07" font-family="Arial" font-size="14.00">HeadDoctor (FK)</text>
<text xml:space="preserve" text-anchor="middle" x="312.75" y="-348.32" font-family="Arial" font-size="14.00">Phone</text>
</g>
<!-- Doctor&#45;&gt;Department -->
<g id="edge13" class="edge">
<title>Doctor&#45;&gt;Department</title>
<path fill="none" stroke="black" d="M126.99,-393.25C150.1,-393.25 178.58,-393.25 206.19,-393.25"/>
<polygon fill="black" stroke="black" points="206.02,-396.75 216.02,-393.25 206.02,-389.75 206.02,-396.75"/>
<text xml:space="preserve" text-anchor="middle" x="185.5" y="-407.75" font-family="Arial" font-size="10.00">1:0..1</text>
<text xml:space="preserve" text-anchor="middle" x="185.5" y="-395.75" font-family="Arial" font-size="10.00">Heads</text>
</g>
<!-- Doctor&#45;&gt;LabTest -->
<g id="edge12" class="edge">
<title>Doctor&#45;&gt;LabTest</title>
<path fill="none" stroke="black" d="M126.98,-358.77C153.01,-341.87 186.04,-322.39 217.75,-309.25 316.78,-268.22 439.19,-242.44 512.46,-229.47"/>
<polygon fill="black" stroke="black" points="513.05,-232.92 522.3,-227.75 511.85,-226.02 513.05,-232.92"/>
<text xml:space="preserve" text-anchor="middle" x="312.75" y="-323.75" font-family="Arial" font-size="10.00">1:M</text>
<text xml:space="preserve" text-anchor="middle" x="312.75" y="-311.75" font-family="Arial" font-size="10.00">Orders</text>
</g>
<!-- TriggerLog -->
<g id="node13" class="node">
<title>TriggerLog</title>
<polygon fill="#e6f6e6" stroke="black" points="850.75,-736 729,-736 729,-554.5 850.75,-554.5 850.75,-736"/>
<text xml:space="preserve" text-anchor="middle" x="789.88" y="-718.7" font-family="Arial" font-size="14.00">TriggerActionLog</text>
<text xml:space="preserve" text-anchor="middle" x="789.88" y="-686.95" font-family="Arial" font-size="14.00">LogID (PK)</text>
<text xml:space="preserve" text-anchor="middle" x="789.88" y="-671.2" font-family="Arial" font-size="14.00">TriggerName</text>
<text xml:space="preserve" text-anchor="middle" x="789.88" y="-655.45" font-family="Arial" font-size="14.00">ActionType</text>
<text xml:space="preserve" text-anchor="middle" x="789.88" y="-639.7" font-family="Arial" font-size="14.00">TableName</text>
<text xml:space="preserve" text-anchor="middle" x="789.88" y="-623.95" font-family="Arial" font-size="14.00">RecordID</text>
<text xml:space="preserve" text-anchor="middle" x="789.88" y="-608.2" font-family="Arial" font-size="14.00">OldValue</text>
<text xml:space="preserve" text-anchor="middle" x="789.88" y="-592.45" font-family="Arial" font-size="14.00">NewValue</text>
<text xml:space="preserve" text-anchor="middle" x="789.88" y="-576.7" font-family="Arial" font-size="14.00">ActionTimestamp</text>
<text xml:space="preserve" text-anchor="middle" x="789.88" y="-560.95" font-family="Arial" font-size="14.00">PatientID</text>
</g>
<!-- Appointment&#45;&gt;TriggerLog -->
<g id="edge15" class="edge">
<title>Appointment&#45;&gt;TriggerLog</title>
<path fill="none" stroke="black" d="M646.31,-1043.16C651.9,-1037.91 657.09,-1032.26 661.5,-1026.25 722.45,-943.19 755.47,-829.14 772.5,-747.51"/>
<polygon fill="black" stroke="black" points="775.88,-748.45 774.44,-737.95 769.02,-747.05 775.88,-748.45"/>
<text xml:space="preserve" text-anchor="middle" x="695.25" y="-1013.9" font-family="Arial" font-size="10.00">0:M</text>
<text xml:space="preserve" text-anchor="middle" x="695.25" y="-1001.9" font-family="Arial" font-size="10.00">Logged</text>
</g>
<!-- Payment&#45;&gt;TriggerLog -->
<g id="edge16" class="edge">
<title>Payment&#45;&gt;TriggerLog</title>
<path fill="none" stroke="black" d="M635.34,-645.25C660.54,-645.25 690.52,-645.25 717.27,-645.25"/>
<polygon fill="black" stroke="black" points="716.99,-648.75 726.99,-645.25 716.99,-641.75 716.99,-648.75"/>
<text xml:space="preserve" text-anchor="middle" x="695.25" y="-659.75" font-family="Arial" font-size="10.00">0:M</text>
<text xml:space="preserve" text-anchor="middle" x="695.25" y="-647.75" font-family="Arial" font-size="10.00">Logged</text>
</g>
<!-- Users -->
<g id="node8" class="node">
<title>Users</title>
<polygon fill="#ffe6e6" stroke="black" points="148,-565.62 5.25,-565.62 5.25,-462.88 148,-462.88 148,-565.62"/>
<text xml:space="preserve" text-anchor="middle" x="76.62" y="-548.33" font-family="Arial" font-size="14.00">Users</text>
<text xml:space="preserve" text-anchor="middle" x="76.62" y="-516.58" font-family="Arial" font-size="14.00">user_id (PK)</text>
<text xml:space="preserve" text-anchor="middle" x="76.62" y="-500.82" font-family="Arial" font-size="14.00">username (UNIQUE)</text>
<text xml:space="preserve" text-anchor="middle" x="76.62" y="-485.07" font-family="Arial" font-size="14.00">password_hash</text>
<text xml:space="preserve" text-anchor="middle" x="76.62" y="-469.32" font-family="Arial" font-size="14.00">role</text>
</g>
<!-- Prescription&#45;&gt;TriggerLog -->
<g id="edge17" class="edge">
<title>Prescription&#45;&gt;TriggerLog</title>
<path fill="none" stroke="black" d="M643.95,-848.66C649.96,-841.15 655.89,-833.59 661.5,-826.25 681.83,-799.64 703.07,-770.17 722.26,-742.87"/>
<polygon fill="black" stroke="black" points="724.94,-745.14 727.82,-734.94 719.21,-741.13 724.94,-745.14"/>
<text xml:space="preserve" text-anchor="middle" x="695.25" y="-816.69" font-family="Arial" font-size="10.00">0:M</text>
<text xml:space="preserve" text-anchor="middle" x="695.25" y="-804.69" font-family="Arial" font-size="10.00">Logged</text>
</g>
<!-- Department&#45;&gt;Room -->
<g id="edge14" class="edge">
<title>Department&#45;&gt;Room</title>
<path fill="none" stroke="black" d="M408.13,-393.77C430.38,-393.91 454.03,-394.07 476,-394.25 478.07,-394.27 480.17,-394.28 482.29,-394.3"/>
<polygon fill="black" stroke="black" points="482.19,-397.8 492.22,-394.39 482.25,-390.8 482.19,-397.8"/>
<text xml:space="preserve" text-anchor="middle" x="450.88" y="-408.75" font-family="Arial" font-size="10.00">1:M</text>
<text xml:space="preserve" text-anchor="middle" x="450.88" y="-396.75" font-family="Arial" font-size="10.00">Contains</text>
</g>
<!-- Room&#45;&gt;TriggerLog -->
<g id="edge18" class="edge">
<title>Room&#45;&gt;TriggerLog</title>
<path fill="none" stroke="black" d="M652.76,-470.37C655.74,-473.68 658.67,-476.98 661.5,-480.25 681.88,-503.74 702.94,-530.06 721.91,-554.65"/>
<polygon fill="black" stroke="black" points="719.02,-556.63 727.88,-562.43 724.57,-552.36 719.02,-556.63"/>
<text xml:space="preserve" text-anchor="middle" x="695.25" y="-552.3" font-family="Arial" font-size="10.00">0:M</text>
<text xml:space="preserve" text-anchor="middle" x="695.25" y="-540.3" font-family="Arial" font-size="10.00">Logged</text>
</g>
<!-- LabTest&#45;&gt;TriggerLog -->
<g id="edge19" class="edge">
<title>LabTest&#45;&gt;TriggerLog</title>
<path fill="none" stroke="black" d="M631.76,-271.57C642.52,-283.91 653.1,-297.5 661.5,-311.25 705.95,-384.01 739.38,-474.88 760.81,-543.46"/>
<polygon fill="black" stroke="black" points="757.41,-544.3 763.7,-552.83 764.1,-542.24 757.41,-544.3"/>
<text xml:space="preserve" text-anchor="middle" x="695.25" y="-421.57" font-family="Arial" font-size="10.00">0:M</text>
<text xml:space="preserve" text-anchor="middle" x="695.25" y="-409.57" font-family="Arial" font-size="10.00">Logged</text>
</g>
<!-- Legend -->
<g id="node14" class="node">
<title>Legend</title>
<polygon fill="#fffacd" stroke="black" points="153.25,-706.5 0,-706.5 0,-584 153.25,-584 153.25,-706.5"/>
<text xml:space="preserve" text-anchor="middle" x="76.62" y="-693.95" font-family="Arial" font-size="9.00">Legend</text>
<text xml:space="preserve" text-anchor="middle" x="76.62" y="-673.45" font-family="Arial" font-size="9.00">Red: Core Entities</text>
<text xml:space="preserve" text-anchor="middle" x="76.62" y="-662.95" font-family="Arial" font-size="9.00">Blue: Junction/Transaction Tables</text>
<text xml:space="preserve" text-anchor="middle" x="76.62" y="-652.45" font-family="Arial" font-size="9.00">Green: Audit Table</text>
<text xml:space="preserve" text-anchor="middle" x="76.62" y="-631.95" font-family="Arial" font-size="9.00">PK: Primary Key</text>
<text xml:space="preserve" text-anchor="middle" x="76.62" y="-621.45" font-family="Arial" font-size="9.00">FK: Foreign Key</text>
<text xml:space="preserve" text-anchor="middle" x="76.62" y="-610.95" font-family="Arial" font-size="9.00">1:M: One&#45;to&#45;Many</text>
<text xml:space="preserve" text-anchor="middle" x="76.62" y="-600.45" font-family="Arial" font-size="9.00">1:1: One&#45;to&#45;One</text>
<text xml:space="preserve" text-anchor="middle" x="76.62" y="-589.95" font-family="Arial" font-size="9.00">0:M: Zero&#45;to&#45;Many</text>
</g>
</g>
</svg>
